<?xml version="1.0" encoding="iso-8859-1"?>
<!-- Generator: Adobe Illustrator 19.0.0, SVG Export Plug-In . SVG Version: 6.00 Build 0)  -->
<svg version="1.1" id="Layer_1" xmlns="http://www.w3.org/2000/svg" xmlns:xlink="http://www.w3.org/1999/xlink" x="0px" y="0px"
	 viewBox="0 0 512 512" style="enable-background:new 0 0 512 512;" xml:space="preserve">
<path style="fill:#25B6D2;" d="M390.752,385.815c-50.752-15.104-109.52-49.2-193.552-57.712c-18.096-1.84-34.528-2.24-49.664-1.696
	C33.296,330.423,0,393.591,0,393.591s50.32-62.08,186.048-36.464s264.704,124.832,325.952,0
	C470.432,397.815,433.408,398.519,390.752,385.815z"/>
<path d="M390.752,385.815c-1.504-320.368-269.568-291.92-269.568-291.92c43.84,125.904,34.256,202.56,26.352,232.512
	c15.136-0.528,31.568-0.128,49.664,1.696C281.232,336.615,340,370.711,390.752,385.815z"/>
<g>
</g>
<g>
</g>
<g>
</g>
<g>
</g>
<g>
</g>
<g>
</g>
<g>
</g>
<g>
</g>
<g>
</g>
<g>
</g>
<g>
</g>
<g>
</g>
<g>
</g>
<g>
</g>
<g>
</g>
</svg>
