<?xml version="1.0" encoding="iso-8859-1"?>
<!-- Generator: Adobe Illustrator 19.0.0, SVG Export Plug-In . SVG Version: 6.00 Build 0)  -->
<svg version="1.1" id="Layer_1" xmlns="http://www.w3.org/2000/svg" xmlns:xlink="http://www.w3.org/1999/xlink" x="0px" y="0px"
	 viewBox="0 0 511.934 511.934" style="enable-background:new 0 0 511.934 511.934;" xml:space="preserve">
<g>
	<path style="fill:#E04F5F;" d="M304.399,24.43c-68.528-16.064-154.048,99.744-180.144,138l119.2,30.24l31.008,7.872l109.824,27.856
		C385.279,180.75,381.455,42.366,304.399,24.43z"/>
	<path style="fill:#E04F5F;" d="M323.023,13.966c76.96,34,78.688,174.192,77.232,218.464l103.856,26.336
		C501.055,149.23,430.271,49.966,323.023,13.966z"/>
	<path style="fill:#E04F5F;" d="M301.823,7.79c-117.536-28.976-236.128,25.12-294,125.104l99.92,25.344
		C129.951,124.814,221.039-3.554,301.823,7.79z"/>
</g>
<path style="fill:#FFFFFF;" d="M323.023,13.966c-6.368-2.144-12.832-4.128-19.44-5.808c-0.592-0.144-1.168-0.224-1.76-0.368
	C221.039-3.554,129.951,124.814,107.759,158.238l16.496,4.192c26.096-38.256,111.616-154.048,180.144-138
	c77.04,17.936,80.88,156.32,79.872,203.952l15.984,4.048C401.711,188.158,399.983,47.966,323.023,13.966z"/>
<polygon style="fill:#2C3E50;" points="274.463,200.526 243.455,192.654 161.631,503.806 192.559,511.934 "/>
<g>
</g>
<g>
</g>
<g>
</g>
<g>
</g>
<g>
</g>
<g>
</g>
<g>
</g>
<g>
</g>
<g>
</g>
<g>
</g>
<g>
</g>
<g>
</g>
<g>
</g>
<g>
</g>
<g>
</g>
</svg>
