<?xml version="1.0" encoding="iso-8859-1"?>
<!-- Generator: Adobe Illustrator 19.0.0, SVG Export Plug-In . SVG Version: 6.00 Build 0)  -->
<svg version="1.1" id="Layer_1" xmlns="http://www.w3.org/2000/svg" xmlns:xlink="http://www.w3.org/1999/xlink" x="0px" y="0px"
	 viewBox="0 0 512 512" style="enable-background:new 0 0 512 512;" xml:space="preserve">
<path style="fill:#DDDDDD;" d="M256,16C123.664,16,16,123.648,16,256s107.664,240,240,240s240-107.664,240-240S388.336,16,256,16z
	 M351.84,382.208L256,315.04l-95.792,67.168l36.56-108.656l-96.848-67.84h119.664l36.368-107.936l36.384,107.936h119.696
	l-96.832,67.84L351.84,382.208z"/>
<path d="M256,0C114.848,0,0,114.832,0,256s114.848,256,256,256s256-114.848,256-256S397.152,0,256,0z M256,496
	C123.664,496,16,388.336,16,256S123.664,16,256,16s240,107.664,240,240S388.336,496,256,496z"/>
<path d="M292.352,205.712L255.968,97.776L219.6,205.712H99.92l96.848,67.84l-36.56,108.656L256,315.04l95.84,67.168l-36.608-108.656
	l96.832-67.84H292.352z M321.12,341.152L256,295.504l-65.104,45.648l24.848-73.84l-65.088-45.6h80.448l24.88-73.84l24.896,73.84
	h80.48l-65.104,45.6L321.12,341.152z"/>
<polygon style="fill:#FFFFFF;" points="280.864,221.712 255.968,147.872 231.088,221.712 150.64,221.712 215.728,267.312 
	190.896,341.152 256,295.504 321.12,341.152 296.24,267.312 361.344,221.712 "/>
<g>
</g>
<g>
</g>
<g>
</g>
<g>
</g>
<g>
</g>
<g>
</g>
<g>
</g>
<g>
</g>
<g>
</g>
<g>
</g>
<g>
</g>
<g>
</g>
<g>
</g>
<g>
</g>
<g>
</g>
</svg>
